<svg xmlns="http://www.w3.org/2000/svg" viewBox="0 0 66 66"><defs><style>.cls-1{fill:#f8e100;}.cls-2{fill:#9e9e9e;}.cls-3{fill:none;stroke:#9e9e9e;stroke-miterlimit:10;stroke-width:2px;}</style></defs><title>Recurso 7</title><g id="Capa_2" data-name="Capa 2"><g id="Capa_1-2" data-name="Capa 1"><circle class="cls-1" cx="33" cy="33" r="33"/><rect class="cls-2" x="19.34" y="19.57" width="26.95" height="1.7"/><rect class="cls-2" x="19.34" y="23.57" width="26.95" height="1.7"/><rect class="cls-2" x="19.34" y="27.57" width="26.95" height="1.7"/><rect class="cls-2" x="19.34" y="31.57" width="26.95" height="1.7"/><rect class="cls-2" x="19.34" y="35.57" width="16.95" height="1.7"/><rect class="cls-3" x="12" y="9.5" width="42" height="47" rx="4.06"/><path class="cls-2" d="M42.33,44.68a.88.88,0,0,0,.36.77,3.53,3.53,0,0,0,1.1.45V43.48a1.9,1.9,0,0,0-1.11.35A1.06,1.06,0,0,0,42.33,44.68Z"/><path class="cls-2" d="M45.45,47.94a4.54,4.54,0,0,0-1.21-.5v2.43a2.14,2.14,0,0,0,1.21-.29.91.91,0,0,0,.43-.82A.92.92,0,0,0,45.45,47.94Z"/><path class="cls-2" d="M44,39.67a6.83,6.83,0,1,0,6.83,6.83A6.83,6.83,0,0,0,44,39.67Zm3.12,10a2.2,2.2,0,0,1-.65.77,2.85,2.85,0,0,1-1,.46,4.35,4.35,0,0,1-1.17.16V52.4H43.7V51.09A6.2,6.2,0,0,1,42,50.74a5.32,5.32,0,0,1-1.46-.8l.62-1.18a2.15,2.15,0,0,0,.4.31,4.14,4.14,0,0,0,.6.34,6.53,6.53,0,0,0,.75.28,4.85,4.85,0,0,0,.86.17V47.32l-.16,0-.15,0a9.66,9.66,0,0,1-1.14-.36,2.9,2.9,0,0,1-.8-.46,1.86,1.86,0,0,1-.49-.63,2.16,2.16,0,0,1-.16-.88,2.59,2.59,0,0,1,.21-1.07,2.35,2.35,0,0,1,.59-.81,2.71,2.71,0,0,1,.89-.52,3.91,3.91,0,0,1,1.12-.24V41h.64v1.25a4.76,4.76,0,0,1,1.48.32,5.21,5.21,0,0,1,1.19.65l-.63,1.13a1.4,1.4,0,0,0-.33-.27,4.31,4.31,0,0,0-.49-.27,5,5,0,0,0-.62-.22,4.1,4.1,0,0,0-.7-.12V46l.24,0a9.46,9.46,0,0,1,1.19.35,3.39,3.39,0,0,1,.91.48,2,2,0,0,1,.57.7,2.28,2.28,0,0,1,.2,1A2.53,2.53,0,0,1,47.12,49.72Z"/></g></g></svg>