<svg xmlns="http://www.w3.org/2000/svg" viewBox="0 0 66 66"><defs><style>.cls-1{fill:#f8e100;}.cls-2{fill:#9e9e9e;}</style></defs><title>Recurso 3</title><g id="Capa_2" data-name="Capa 2"><g id="Capa_1-2" data-name="Capa 1"><circle class="cls-1" cx="33" cy="33" r="33"/><path class="cls-2" d="M46.18,36.66V26.41A9.49,9.49,0,0,0,37.81,17l2.44-4.87A.74.74,0,0,0,39.59,11H26.41a.73.73,0,0,0-.65,1.06L28.19,17a9.51,9.51,0,0,0-8.36,9.44V39.59h1.46V26.41a8.06,8.06,0,0,1,8.05-8h7.32a8,8,0,0,1,8.05,8.05V36.66Zm-10-19.76H29.79L27.6,12.51H38.4Z"/><path class="cls-2" d="M26.78,22a5,5,0,0,1,1.28-.53L27.69,20a6.53,6.53,0,0,0-1.64.68Z"/><path class="cls-2" d="M22.75,29.34h1.47V26.41a5.08,5.08,0,0,1,1.55-3.67l-1-1a6.57,6.57,0,0,0-2,4.72Z"/><path class="cls-2" d="M13.13,47l12.43,6.77A9.41,9.41,0,0,0,30.12,55H54.23a.73.73,0,0,0,.73-.73V41.05a.73.73,0,0,0-.73-.73h-5.6l-.09-.07a11.93,11.93,0,0,0-13.65-.66H29.34a3.66,3.66,0,0,0-3.49,4.76l-9-4.54a3.93,3.93,0,0,0-4.15.4A4,4,0,0,0,11,43.42v.08A4,4,0,0,0,13.13,47Zm36-5.24h4.39V53.49H49.1ZM12.51,43.42a2.55,2.55,0,0,1,1.06-2.07,2.46,2.46,0,0,1,2.58-.23l11.4,5.71a.73.73,0,0,0,.33.08h11V45.44H29.34a2.2,2.2,0,1,1,0-4.39h5.77a.72.72,0,0,0,.4-.12A10.4,10.4,0,0,1,45.17,40a9.79,9.79,0,0,1,2.47,1.42V53.49H30.12a8.11,8.11,0,0,1-3.86-1L13.83,45.73a2.5,2.5,0,0,1-1.32-2.23Z"/><path class="cls-2" d="M33.73,36.66V35.2h.73a2.93,2.93,0,0,0,0-5.86H31.54a1.47,1.47,0,1,1,0-2.93h5.12V25H33.73V23.49H32.27V25h-.73a2.93,2.93,0,1,0,0,5.85h2.92a1.47,1.47,0,1,1,0,2.93H29.34V35.2h2.93v1.46Z"/></g></g></svg>