<svg xmlns="http://www.w3.org/2000/svg" viewBox="0 0 66 66"><defs><style>.cls-1{fill:#f8e100;}.cls-2{fill:#9e9e9e;}</style></defs><title>Recurso 6</title><g id="Capa_2" data-name="Capa 2"><g id="Capa_1-2" data-name="Capa 1"><circle class="cls-1" cx="33" cy="33" r="33"/><path class="cls-2" d="M44.75,35.14V10.87H26.19V30l-3.9,6.83a7.81,7.81,0,0,0-.48,6.81l4.61,11.53H38.16l2.52-9.43a15.25,15.25,0,0,0,.5-3.86V39.33h3.55m-5,2.51a13.7,13.7,0,0,1-.46,3.49L37.07,53.7H27.39L23.14,43.07a6.38,6.38,0,0,1,.39-5.57l2.66-4.67v6.59h7.86v4.29h1.42V33a2.15,2.15,0,0,1,4.29,0ZM37.61,29.43A3.57,3.57,0,0,0,34.05,33v5H27.62V12.3H43.33V38H41.18V33A3.57,3.57,0,0,0,37.61,29.43Z"/><path class="cls-2" d="M35.47,14.33a1.13,1.13,0,0,0-1.12,1.26v7.19a1.14,1.14,0,0,0,1.12,1.27,1.17,1.17,0,0,0,1.13-1.27V15.59A1.16,1.16,0,0,0,35.47,14.33Z"/><path class="cls-2" d="M35.47,25.14a1.24,1.24,0,1,0,0,2.48,1.24,1.24,0,1,0,0-2.48Z"/></g></g></svg>