<svg xmlns="http://www.w3.org/2000/svg" viewBox="0 0 66 66"><defs><style>.cls-1{fill:#f8e100;}.cls-2{fill:#9e9e9e;}</style></defs><title>Recurso 4</title><g id="Capa_2" data-name="Capa 2"><g id="Capa_1-2" data-name="Capa 1"><circle class="cls-1" cx="33" cy="33" r="33"/><path class="cls-2" d="M19.91,27.32a7.41,7.41,0,1,0-7.41-7.41A7.41,7.41,0,0,0,19.91,27.32Zm0-13.22a5.81,5.81,0,1,1-5.81,5.81A5.82,5.82,0,0,1,19.91,14.1Z"/><path class="cls-2" d="M20.55,21.67a.77.77,0,0,0,.56.24.81.81,0,0,0,.57-1.37l-1-1V16a.8.8,0,1,0-1.6,0v3.89a.81.81,0,0,0,.23.57Z"/><path class="cls-2" d="M52.7,39.09H47.77a4.68,4.68,0,0,0-2.86-1.9l-3.52-.77a5.42,5.42,0,0,0,2.39-4.49V28.87a5.4,5.4,0,1,0-10.8,0v3.06a5.38,5.38,0,0,0,2.38,4.48l-3.52.77-.44.13V30.68a.8.8,0,0,0-.8-.8H25.15a.8.8,0,0,0,0,1.6H29.8V42.69H24.35v-4a2.4,2.4,0,1,0-4.8,0v4H14.1V31.48h4.65a.8.8,0,0,0,0-1.6H13.3a.8.8,0,0,0-.8.8V43.49a.8.8,0,0,0,.8.8h6.25v1.52h-.08A2.5,2.5,0,0,0,17,48.3v.4H13.3a.8.8,0,0,0-.8.8v3.2a.8.8,0,0,0,.8.8H52.7a.8.8,0,0,0,.8-.8V39.89A.8.8,0,0,0,52.7,39.09ZM47.83,48.7H43.25V47.09H51.9V48.7Zm4.07-3.21H43.25v-1.6H51.9Zm0-3.2H43.25v-1.6H51.9ZM34.58,28.87a3.8,3.8,0,0,1,7.59-.3l-1.86-1.09a.8.8,0,0,0-1,.17A4.24,4.24,0,0,1,36,29.18H34.58v-.31Zm0,1.91H36a5.86,5.86,0,0,0,4-1.6l2.13,1.26v1.49a3.8,3.8,0,1,1-7.6,0V30.78Zm5.05,6.41-1.26,3.39-1.27-3.4a5.41,5.41,0,0,0,1.28.16A5.7,5.7,0,0,0,39.63,37.19Zm-9,7.1a.8.8,0,0,0,.8-.8V39a3.12,3.12,0,0,1,.79-.29l3.5-.77,1.93,5.16a.79.79,0,0,0,.75.52.8.8,0,0,0,.75-.52L41.05,38l3.52.77a3,3,0,0,1,.88.34h-3a.8.8,0,0,0-.8.8V48.7H29.73V44.29Zm-2.47,0V48.7H26.91v-.4a2.49,2.49,0,0,0-2.48-2.49h-.08V44.29Zm-7-5.6a.8.8,0,1,1,1.6,0v7.12h-1.6ZM18.59,48.3a.88.88,0,0,1,.88-.89h5a.88.88,0,0,1,.88.89v.4H18.59ZM51.9,51.9H14.1V50.3H51.9Z"/><path class="cls-2" d="M21.38,30.11a.81.81,0,0,0-.23.57.77.77,0,0,0,.23.56.8.8,0,0,0,1.37-.56.86.86,0,0,0-.23-.57.82.82,0,0,0-1.14,0Z"/></g></g></svg>