<svg xmlns="http://www.w3.org/2000/svg" viewBox="0 0 66 66"><defs><style>.cls-1{fill:#f8e100;}.cls-2{fill:#9e9e9e;}</style></defs><title>Recurso 5</title><g id="Capa_2" data-name="Capa 2"><g id="Capa_1-2" data-name="Capa 1"><circle class="cls-1" cx="33" cy="33" r="33"/><path class="cls-2" d="M54.33,33.69V28.17a3.43,3.43,0,0,0-2.45-3.3l-4.43-1.32V22.5a4.82,4.82,0,0,0,2.06-3.95V16.49a4.82,4.82,0,1,0-9.63,0v2.06a4.82,4.82,0,0,0,2.06,3.95v1L38,24.72a7.93,7.93,0,0,0-10.48-.12l-3.5-1.05V22.5a4.82,4.82,0,0,0,2.06-3.95V16.49a4.82,4.82,0,1,0-9.63,0v2.06a4.82,4.82,0,0,0,2.06,3.95v1l-4.42,1.33a3.43,3.43,0,0,0-2.46,3.3v5.52h1.38V28.17a2.06,2.06,0,0,1,1.47-2L19,24.86a2.83,2.83,0,0,0,4.71,0l2.82.85a8,8,0,0,0-1.67,4,4.78,4.78,0,0,0-3.5-1.53A4.83,4.83,0,0,0,16.49,33v2.06A4.82,4.82,0,0,0,18.55,39v1.05l-4.42,1.32a3.43,3.43,0,0,0-2.46,3.3v6.21h8.26a.69.69,0,0,1,.69.68v2.76H45.38V51.57a.69.69,0,0,1,.69-.68h8.26V44.68a3.43,3.43,0,0,0-2.45-3.3l-4.43-1.32V39a4.82,4.82,0,0,0,2.06-3.95V33a4.82,4.82,0,0,0-4.81-4.81,4.76,4.76,0,0,0-3.44,1.45V29a3.7,3.7,0,0,0-1.89-3.23l3-.9a2.83,2.83,0,0,0,4.71,0l4.43,1.33a2.06,2.06,0,0,1,1.47,2v5.52Zm-33-20.64a3.45,3.45,0,0,1,3.44,3.44H21.59A1.64,1.64,0,0,1,20.42,16l-.49-.48-.49.48a1.66,1.66,0,0,1-1.17.49h-.4A3.44,3.44,0,0,1,21.31,13.05Zm-3.44,5.5v-.68h.4a3,3,0,0,0,1.66-.5,3,3,0,0,0,1.66.5h3.16v.68a3.44,3.44,0,0,1-6.88,0Zm3.44,6.2a1.76,1.76,0,0,1-1.38-.88v-.7a4.85,4.85,0,0,0,1.38.2,4.78,4.78,0,0,0,1.37-.2v.7A1.76,1.76,0,0,1,21.31,24.75ZM40.22,36.82A4.83,4.83,0,0,0,41.94,39v1.05l-4.42,1.32a3.2,3.2,0,0,0-.43.17l-.65-.15V40a5.57,5.57,0,0,0,1.67-2.25A3.45,3.45,0,0,0,40.22,36.82ZM33,41.26a5.41,5.41,0,0,0,2.06-.41v.75L33,43.15,30.94,41.6v-.75A5.41,5.41,0,0,0,33,41.26Zm-2.91,1.43,1.68,1.25L30,45l-.43-2.18Zm2.15,5.45h1.52L34.3,53H31.71Zm1.64-1.38H32.12l-.39-1.19L33,44.81l1.28.76Zm.35-2.82,1.68-1.25.48.11L36,45Zm5.11-8.18a1.93,1.93,0,0,1-.87.56,5.44,5.44,0,0,0,0-.57V32.46a2.07,2.07,0,0,1,1.37,1.71A2,2,0,0,1,39.34,35.76Zm-2.21,0a4.13,4.13,0,0,1-8.26,0V32.31h2.34a8.77,8.77,0,0,0,4.26-1.09L36,32.31h1.12Zm-9.6.57a2,2,0,0,1-.87-.56,2.05,2.05,0,0,1-.53-1.59,2.09,2.09,0,0,1,1.37-1.71v3.29A5.44,5.44,0,0,0,27.53,36.32Zm.36,1.47A5.57,5.57,0,0,0,29.56,40V41.4l-.65.15a3.69,3.69,0,0,0-.42-.17l-4.43-1.32V39a4.85,4.85,0,0,0,1.73-2.19A3.4,3.4,0,0,0,27.89,37.79Zm-6.58-8.23A3.45,3.45,0,0,1,24.75,33h-.41a1.68,1.68,0,0,1-1.17-.49L22.68,32l-.49.48A1.64,1.64,0,0,1,21,33H17.87A3.44,3.44,0,0,1,21.31,29.56Zm-3.44,5.5v-.68H21a3,3,0,0,0,1.66-.5,3,3,0,0,0,1.66.5h.41v.68a3.44,3.44,0,1,1-6.88,0Zm3.44,4.82a4.78,4.78,0,0,0,1.37-.2v.7a1.76,1.76,0,0,1-1.37.88,1.76,1.76,0,0,1-1.38-.88v-.7A4.85,4.85,0,0,0,21.31,39.88Zm-1.38,9.63H17.18V44.7H15.8v4.81H13.05V44.68a2.06,2.06,0,0,1,1.47-2L19,41.37a2.83,2.83,0,0,0,4.71,0l2.61.79-1.92.44a4.79,4.79,0,0,0-3.73,4.69v.85H22v-.85a3.42,3.42,0,0,1,2.67-3.35l3.61-.83.81,4,1.44-.86.4,1.22L30.32,53H26.81v-5.5H25.43V53H22V51.57A2.06,2.06,0,0,0,19.93,49.51ZM51.48,42.7a2.06,2.06,0,0,1,1.47,2v4.83H50.2V44.7H48.82v4.81H46.07A2.06,2.06,0,0,0,44,51.57V53H40.57v-5.5H39.19V53H35.68l-.6-5.43.4-1.22,1.44.86.81-4,3.61.83A3.42,3.42,0,0,1,44,47.29v.85h1.37v-.85a4.79,4.79,0,0,0-3.73-4.69l-1.92-.44,2.61-.79a2.83,2.83,0,0,0,4.71,0Zm-5.41-2.32a1.51,1.51,0,0,1-2.75,0v-.7a4.85,4.85,0,0,0,1.38.2,4.78,4.78,0,0,0,1.37-.2ZM44.7,38.5a3.44,3.44,0,0,1-3.44-3.44v-.68h.4a3,3,0,0,0,1.66-.5,3,3,0,0,0,1.66.5h3.16v.68A3.45,3.45,0,0,1,44.7,38.5Zm0-8.94A3.45,3.45,0,0,1,48.14,33H45a1.64,1.64,0,0,1-1.17-.49L43.32,32l-.49.48a1.66,1.66,0,0,1-1.17.49h-.4A3.44,3.44,0,0,1,44.7,29.56Zm-4.82,2.12a3.61,3.61,0,0,0-2.18-.74h-.83L36,29.24l-.65.44a7.53,7.53,0,0,1-4.16,1.26H28.3a3.63,3.63,0,0,0-2.18.74v-1A6.61,6.61,0,0,1,37.4,26l.73.73.16.05A2.33,2.33,0,0,1,39.88,29ZM44.7,13.05a3.45,3.45,0,0,1,3.44,3.44h-.41A1.68,1.68,0,0,1,46.56,16l-.49-.48-.49.48a1.64,1.64,0,0,1-1.17.49H41.26A3.44,3.44,0,0,1,44.7,13.05Zm-3.44,5.5v-.68h3.15a3,3,0,0,0,1.66-.5,3,3,0,0,0,1.66.5h.41v.68a3.44,3.44,0,1,1-6.88,0Zm3.44,6.2a1.76,1.76,0,0,1-1.38-.88v-.7a4.85,4.85,0,0,0,1.38.2,4.78,4.78,0,0,0,1.37-.2v.7A1.76,1.76,0,0,1,44.7,24.75Z"/></g></g></svg>