<svg xmlns="http://www.w3.org/2000/svg" viewBox="0 0 225.35 273.41"><defs><style>.cls-1{fill:#f2f2f2;}.cls-2{fill:#e7e7e7;}.cls-3{fill:#c6c6c6;}.cls-4{fill:#d9d9d9;}.cls-5{fill:#393939;}.cls-6{fill:#bdbdbd;}.cls-7{fill:#848484;}.cls-8{fill:#949494;}.cls-9{fill:#d8d8d8;}</style></defs><title>Recurso 1</title><g id="Capa_2" data-name="Capa 2"><g id="Capa_1-2" data-name="Capa 1"><path class="cls-1" d="M161.27,0H0V273.41H225.35V64.08Z"/><path class="cls-2" d="M161.27,0H112.68V273.41H225.35V64.08Z"/><path class="cls-3" d="M161.27,0V64.08h64.08Z"/><path class="cls-4" d="M39.52,32h65.15v16H39.52Z"/><path class="cls-5" d="M64.08,185.83h16V233.9h-16Z"/><path class="cls-6" d="M129.23,169.28h16v64.08h-16Z"/><path class="cls-7" d="M161.27,156.46h16v76.9h-16Z"/><path class="cls-8" d="M96.66,201.32h16v32h-16Z"/><path class="cls-8" d="M72.69,64.36h-.33a40.05,40.05,0,1,0,40.05,40.05h-40Z"/><path class="cls-9" d="M72.69,64.36l-.33,40h40.05A40.09,40.09,0,0,0,72.69,64.36Z"/><path class="cls-3" d="M129.23,80.1H185.3v16H129.23Z"/><path class="cls-3" d="M129.23,112.14H185.3v16H129.23Z"/><path class="cls-4" d="M193.31,241.37H32V153.26H48v72.09H193.31Z"/><path class="cls-3" d="M112.68,225.35h80.63v16H112.68Z"/></g></g></svg>