<svg xmlns="http://www.w3.org/2000/svg" viewBox="0 0 66 66"><defs><style>.cls-1{fill:#f8e100;}.cls-2{fill:#9e9e9e;}</style></defs><title>Recurso 2</title><g id="Capa_2" data-name="Capa 2"><g id="Capa_1-2" data-name="Capa 1"><circle class="cls-1" cx="33" cy="33" r="33"/><path class="cls-2" d="M50,7.5H19.4A4.26,4.26,0,0,0,15.23,11a4.26,4.26,0,0,0-3.48,4.17v39.1A4.26,4.26,0,0,0,16,58.5H46.6A4.25,4.25,0,0,0,50.77,55a4.25,4.25,0,0,0,3.48-4.17V11.75A4.26,4.26,0,0,0,50,7.5Zm-.85,46.75A2.56,2.56,0,0,1,46.6,56.8H16a2.56,2.56,0,0,1-2.55-2.55V15.15A2.56,2.56,0,0,1,16,12.6H41.5v6.8a.85.85,0,0,0,.85.85h6.8ZM43.2,18.55V13.8L48,18.55Zm9.35,32.3a2.56,2.56,0,0,1-1.7,2.39V19.4a.86.86,0,0,0-.25-.6L43,11.15a.86.86,0,0,0-.6-.25H17A2.56,2.56,0,0,1,19.4,9.2H50a2.56,2.56,0,0,1,2.55,2.55Z"/><path class="cls-2" d="M31.3,15.15a4.25,4.25,0,1,0,4.25,4.25A4.26,4.26,0,0,0,31.3,15.15Zm0,6.8a2.55,2.55,0,1,1,2.55-2.55A2.55,2.55,0,0,1,31.3,22Z"/><rect class="cls-2" x="16" y="26.2" width="8.5" height="1.7"/><rect class="cls-2" x="27.05" y="26.2" width="2.55" height="1.7"/><rect class="cls-2" x="33" y="26.2" width="8.5" height="1.7"/><rect class="cls-2" x="44.05" y="26.2" width="2.55" height="1.7"/><rect class="cls-2" x="16" y="29.6" width="8.5" height="1.7"/><rect class="cls-2" x="27.05" y="29.6" width="2.55" height="1.7"/><rect class="cls-2" x="33" y="29.6" width="8.5" height="1.7"/><rect class="cls-2" x="44.05" y="29.6" width="2.55" height="1.7"/><rect class="cls-2" x="16" y="33" width="8.5" height="1.7"/><rect class="cls-2" x="27.05" y="33" width="2.55" height="1.7"/><rect class="cls-2" x="33" y="33" width="8.5" height="1.7"/><rect class="cls-2" x="44.05" y="33" width="2.55" height="1.7"/><rect class="cls-2" x="16" y="36.4" width="8.5" height="1.7"/><rect class="cls-2" x="27.05" y="36.4" width="2.55" height="1.7"/><rect class="cls-2" x="33" y="36.4" width="8.5" height="1.7"/><rect class="cls-2" x="44.05" y="36.4" width="2.55" height="1.7"/><rect class="cls-2" x="16" y="41.5" width="8.5" height="1.7"/><rect class="cls-2" x="27.05" y="41.5" width="2.55" height="1.7"/><rect class="cls-2" x="33" y="41.5" width="8.5" height="1.7"/><rect class="cls-2" x="44.05" y="41.5" width="2.55" height="1.7"/><rect class="cls-2" x="16" y="44.9" width="8.5" height="1.7"/><rect class="cls-2" x="27.05" y="44.9" width="2.55" height="1.7"/><rect class="cls-2" x="33" y="44.9" width="8.5" height="1.7"/><rect class="cls-2" x="44.05" y="44.9" width="2.55" height="1.7"/><rect class="cls-2" x="16" y="48.3" width="8.5" height="1.7"/><rect class="cls-2" x="27.05" y="48.3" width="2.55" height="1.7"/><rect class="cls-2" x="33" y="48.3" width="8.5" height="1.7"/><rect class="cls-2" x="44.05" y="48.3" width="2.55" height="1.7"/><rect class="cls-2" x="16" y="51.7" width="8.5" height="1.7"/><rect class="cls-2" x="27.05" y="51.7" width="2.55" height="1.7"/><rect class="cls-2" x="33" y="51.7" width="8.5" height="1.7"/><rect class="cls-2" x="44.05" y="51.7" width="2.55" height="1.7"/></g></g></svg>